<?xml version="1.0" standalone="no"?>
<!DOCTYPE svg PUBLIC "-//W3C//DTD SVG 20010904//EN"
 "http://www.w3.org/TR/2001/REC-SVG-20010904/DTD/svg10.dtd">
<svg version="1.0" xmlns="http://www.w3.org/2000/svg"
 width="567.000000pt" height="567.000000pt" viewBox="0 0 567.000000 567.000000"
 preserveAspectRatio="xMidYMid meet">
<metadata>
Created by potrace 1.14, written by Peter Selinger 2001-2017
</metadata>
<g transform="translate(0.000000,567.000000) scale(0.100000,-0.100000)"
fill="#000000" stroke="none">
<path d="M2540 4919 c-235 -35 -487 -126 -670 -243 -19 -13 -66 -42 -105 -67
-38 -24 -81 -52 -95 -62 -155 -115 -196 -147 -240 -187 -15 -14 -57 -51 -93
-83 -55 -49 -150 -143 -242 -241 -50 -53 -150 -171 -212 -249 -108 -138 -107
-136 -177 -243 -22 -32 -42 -61 -46 -64 -4 -3 -13 -17 -21 -31 -19 -35 -76
-130 -89 -149 -14 -20 -57 -101 -111 -210 -23 -47 -50 -101 -60 -121 -43 -84
-153 -369 -169 -439 -5 -19 -18 -66 -29 -105 -12 -38 -25 -95 -31 -125 -5 -30
-12 -66 -15 -80 -31 -132 -46 -339 -34 -466 18 -171 82 -381 145 -475 13 -19
24 -38 24 -42 0 -9 44 -60 110 -128 47 -48 152 -129 168 -129 5 0 29 -11 53
-24 59 -33 215 -67 309 -67 97 0 252 32 315 65 26 14 52 26 56 26 35 0 229
178 276 253 14 23 29 44 33 47 35 25 150 352 150 427 0 28 17 147 35 253 3 14
12 72 20 130 9 58 25 148 36 200 11 52 25 120 29 150 12 72 8 55 73 315 33
131 93 339 119 410 5 17 23 66 38 110 16 44 38 99 49 122 12 23 21 51 21 62 0
10 4 21 8 23 9 4 82 152 82 167 0 5 4 11 9 13 5 2 17 21 27 42 11 22 26 42 34
44 8 3 12 2 9 -2 -4 -4 -3 -24 2 -44 5 -20 12 -66 15 -102 2 -36 9 -101 15
-145 15 -127 17 -145 24 -235 3 -47 8 -112 11 -145 6 -70 5 -465 -1 -545 -6
-87 -15 -178 -26 -270 -6 -47 -13 -114 -15 -150 -3 -36 -19 -127 -36 -203 -28
-127 -30 -150 -26 -275 5 -122 9 -147 37 -227 18 -49 42 -106 54 -125 12 -19
29 -48 37 -65 8 -16 53 -68 100 -115 82 -83 189 -157 263 -182 18 -6 37 -14
42 -18 6 -4 37 -16 70 -26 47 -15 91 -19 200 -19 l140 0 76 38 c48 23 93 55
121 85 41 44 198 271 198 287 0 3 14 26 30 50 17 24 30 48 30 53 0 5 8 20 18
33 25 32 111 195 240 454 100 201 195 392 325 650 33 66 63 122 67 125 4 3 11
16 15 28 4 13 20 43 36 67 16 24 29 47 30 51 1 18 104 159 114 157 13 -2 52
-149 65 -248 6 -44 17 -111 25 -150 8 -38 17 -92 20 -120 3 -27 8 -61 11 -74
3 -13 7 -61 9 -105 3 -45 6 -90 9 -101 2 -11 7 -49 11 -85 4 -36 9 -72 10 -81
2 -9 6 -40 10 -70 3 -30 8 -61 10 -69 3 -8 7 -46 10 -83 6 -89 59 -311 96
-408 16 -42 29 -80 29 -85 0 -20 99 -162 145 -206 54 -53 168 -117 230 -130
115 -23 159 -28 253 -28 56 1 108 2 116 2 15 1 -39 88 -55 88 -5 0 -9 5 -9 12
0 6 -13 39 -29 72 -37 75 -89 214 -106 281 -7 28 -24 90 -39 139 -14 48 -26
101 -26 117 0 15 -4 38 -9 51 -9 23 -36 165 -46 243 -10 73 -14 158 -20 390
-7 303 -13 480 -19 535 -15 140 -29 240 -37 275 -18 73 -51 179 -65 212 -8 17
-14 36 -14 42 0 6 -4 11 -10 11 -5 0 -13 12 -16 28 -4 15 -21 47 -38 71 -34
49 -183 201 -197 201 -5 0 -28 12 -51 26 -49 31 -181 78 -257 92 -123 22 -314
-13 -414 -77 -18 -11 -43 -26 -57 -33 -30 -15 -203 -190 -245 -247 -16 -23
-35 -47 -41 -54 -17 -19 -104 -148 -104 -153 0 -10 -53 -75 -57 -70 -2 2 -4
93 -4 203 -1 284 -33 559 -89 753 -15 52 -31 107 -34 123 -9 38 -121 283 -136
297 -3 3 -18 24 -34 47 -16 24 -39 53 -51 65 -12 13 -27 33 -34 46 -6 12 -18
22 -25 22 -8 0 -16 6 -19 14 -15 39 -218 160 -297 176 -19 5 -60 13 -90 20
-71 15 -209 19 -280 9z"/>
</g>
</svg>
